<?xml version="1.0" encoding="utf-8"?>
<!-- Generator: Adobe Illustrator 23.0.5, SVG Export Plug-In . SVG Version: 6.00 Build 0)  -->
<svg version="1.1" id="Слой_1" xmlns="http://www.w3.org/2000/svg" xmlns:xlink="http://www.w3.org/1999/xlink" x="0px" y="0px"
	 viewBox="0 0 24 24" style="enable-background:new 0 0 24 24;" xml:space="preserve">
<style type="text/css">
	.st0{fill:#FFFFFF;}
</style>
<path class="st0" d="M13.2,19c0.6,0,0.9-0.4,0.9-0.9c0-1.9,0.7-2.9,2.1-1.6c1.5,1.5,1.8,2.5,3.6,2.5h3.2c0.8,0,1.1-0.3,1.1-0.7
	c0-0.9-1.4-2.4-2.6-3.5c-1.7-1.6-1.8-1.6-0.3-3.5C22.9,9,25.2,6,23.1,6h-4c-0.8,0-0.8,0.4-1.1,1.1c-1,2.3-2.9,5.4-3.6,4.9
	c-0.8-0.5-0.4-2.4-0.4-5.3c0-0.8,0-1.3-1.1-1.5C12.3,5.1,11.7,5,11.1,5C8.9,5,7.3,6,8.2,6.1c1.6,0.3,1.4,3.7,1.1,5.2
	c-0.6,2.6-3-2-4-4.3C5,6.4,4.9,6,4,6H0.8C0.3,6,0,6.2,0,6.5c0,0.6,3,6.7,5.8,9.8C8.5,19.3,11.3,19,13.2,19z"/>
</svg>
