<?xml version="1.0" encoding="utf-8"?>
<!-- Generator: Adobe Illustrator 23.0.5, SVG Export Plug-In . SVG Version: 6.00 Build 0)  -->
<svg version="1.1" id="Слой_1" xmlns="http://www.w3.org/2000/svg" xmlns:xlink="http://www.w3.org/1999/xlink" x="0px" y="0px"
	 viewBox="0 0 24 24" style="enable-background:new 0 0 24 24;" xml:space="preserve">
<style type="text/css">
	.st0{fill:#FFFFFF;}
</style>
<path class="st0" d="M17.5,12.5c2.8,0,5,1.8,5,4c0,1.1-0.5,1.7-1.1,2.5c0,0.7,0,1.1,0.1,1.9c-0.9-0.3-1-0.4-1.7-0.8
	c-0.9,0.2-1.5,0.4-2.5,0.4c-3.1,0-5-2-5-3.9C12.4,14.3,14.7,12.5,17.5,12.5z M17.5,11c-3.4,0-6.5,2.3-6.5,5.5c0,2.8,2.6,5.4,6.5,5.4
	c0.7,0,1.4-0.1,2.2-0.3c0.9,0.6,2.9,1.1,4.4,1.4c-0.5-1-1.1-2.5-1.1-3.5c0.7-0.9,1.1-2,1.1-3.1C24,13.3,20.9,11,17.5,11z M9,15.7
	c-1.1-0.1-1.6-0.2-2.6-0.5c-1,0.6-1.3,0.8-3,1.4c0.4-1.5,0.4-2.2,0.3-3.2C2.8,12.4,2,11.3,2,9.4c0-3.5,3.6-6.4,8-6.4
	c4.3,0,7.7,2.7,8,6c0.7,0,1.4,0.1,2,0.3c0-4.8-4.8-8.3-10-8.3C4.7,1.1,0,4.6,0,9.4c0,1.7,0.6,3.4,1.7,4.7c0,1.5-0.9,3.7-1.7,5.3
	c2.2-0.4,5.3-1.3,6.6-2.1c0.8,0.2,1.6,0.3,2.3,0.4C8.9,16.9,8.9,16.4,9,15.7z"/>
</svg>
